<svg width="166" height="109" viewBox="0 0 166 109" fill="none" xmlns="http://www.w3.org/2000/svg">
<rect x="0.5" width="165" height="109" rx="6" fill="#1B76F2" fill-opacity="0.12"/>
<mask id="mask0_102_399" style="mask-type:alpha" maskUnits="userSpaceOnUse" x="0" y="0" width="166" height="109">
<rect x="0.5" width="165" height="109" rx="6" fill="white" fill-opacity="0.18"/>
</mask>
<g mask="url(#mask0_102_399)">
<path d="M142.375 53V27.5H151.375L154.375 17H142.375V5.00003H152.875V-5.49997H134.875C134.281 -5.51266 133.69 -5.40493 133.138 -5.18327C132.586 -4.96161 132.085 -4.63061 131.665 -4.2102C131.244 -3.78978 130.913 -3.28864 130.692 -2.73694C130.47 -2.18524 130.362 -1.5944 130.375 -0.999974V17H121.375V27.5H130.375V45.5" stroke="white" stroke-width="2" stroke-linecap="round" stroke-linejoin="round"/>
<path d="M142.375 53H160.375C163.558 53 166.61 51.7357 168.86 49.4853C171.111 47.2348 172.375 44.1826 172.375 41V-4C172.375 -7.1826 171.111 -10.2348 168.86 -12.4853C166.61 -14.7357 163.558 -16 160.375 -16H115.375C112.192 -16 109.14 -14.7357 106.89 -12.4853C104.639 -10.2348 103.375 -7.1826 103.375 -4V41C103.375 44.1826 104.639 47.2348 106.89 49.4853C109.14 51.7357 112.192 53 115.375 53H136.375" stroke="white" stroke-width="2" stroke-linecap="round" stroke-linejoin="round"/>
</g>
</svg>
