<svg width="166" height="109" viewBox="0 0 166 109" fill="none" xmlns="http://www.w3.org/2000/svg">
<rect x="0.5" width="165" height="109" rx="6" fill="#1D9BF0" fill-opacity="0.12"/>
<mask id="mask0_102_409" style="mask-type:alpha" maskUnits="userSpaceOnUse" x="0" y="0" width="166" height="109">
<rect x="0.5" width="165" height="109" rx="6" fill="white" fill-opacity="0.18"/>
</mask>
<g mask="url(#mask0_102_409)">
<path d="M125.167 6.33333H146.5C147.561 6.33333 148.578 6.75476 149.328 7.5049C150.079 8.25505 150.5 9.27247 150.5 10.3333V13C150.5 14.0609 150.079 15.0783 149.328 15.8284C148.578 16.5786 147.561 17 146.5 17H129.167V37C129.167 37 129.167 43.6667 135.833 43.6667H146.5C147.561 43.6667 148.578 44.0881 149.328 44.8382C150.079 45.5884 150.5 46.6058 150.5 47.6667V50.3333C150.5 51.3942 150.079 52.4116 149.328 53.1618C148.578 53.9119 147.561 54.3333 146.5 54.3333H131.833C118.5 54.3333 118.5 41 118.5 41V-3C118.5 -4.06087 118.921 -5.07828 119.672 -5.82843C120.422 -6.57857 121.439 -7 122.5 -7H125.167C126.228 -7 127.245 -6.57857 127.995 -5.82843C128.745 -5.07828 129.167 -4.06087 129.167 -3V1" stroke="white" stroke-width="2" stroke-linecap="round" stroke-linejoin="round"/>
</g>
</svg>
