<svg width="21" height="20" viewBox="0 0 21 20" fill="none" xmlns="http://www.w3.org/2000/svg">
<path d="M10.25 2.99995C10.367 2.99991 10.4804 3.04092 10.5703 3.11583C10.6602 3.19075 10.7209 3.29483 10.742 3.40995L10.75 3.49995V6.49995C10.7501 7.07627 10.5511 7.63494 10.1867 8.0814C9.8222 8.52785 9.31468 8.83468 8.75 8.94994V16.4999C8.75023 16.6249 8.70367 16.7454 8.61949 16.8377C8.53531 16.9301 8.41961 16.9875 8.29518 16.9988C8.17074 17.0101 8.04659 16.9744 7.94717 16.8987C7.84775 16.823 7.78026 16.7129 7.758 16.5899L7.75 16.4999V8.94994C7.21417 8.84036 6.72902 8.55814 6.36888 8.14653C6.00874 7.73491 5.79346 7.21659 5.756 6.67095L5.75 6.49995V3.49995C5.74977 3.375 5.79633 3.25449 5.88051 3.16216C5.96469 3.06983 6.08039 3.01236 6.20482 3.00107C6.32926 2.98978 6.45341 3.02549 6.55283 3.10116C6.65225 3.17684 6.71974 3.287 6.742 3.40995L6.75 3.49995V6.49995C6.74984 6.81027 6.84593 7.11301 7.02503 7.36644C7.20413 7.61986 7.45742 7.8115 7.75 7.91495V3.49995C7.74977 3.375 7.79633 3.25449 7.88051 3.16216C7.96469 3.06983 8.08039 3.01236 8.20482 3.00107C8.32926 2.98978 8.45341 3.02549 8.55283 3.10116C8.65225 3.17684 8.71974 3.287 8.742 3.40995L8.75 3.49995V7.91395C9.288 7.72395 9.685 7.23595 9.743 6.64895L9.75 6.49995V3.49995C9.75 3.36734 9.80268 3.24016 9.89645 3.14639C9.99022 3.05262 10.1174 2.99995 10.25 2.99995V2.99995ZM15.25 2.99995C15.367 2.99991 15.4804 3.04092 15.5703 3.11583C15.6602 3.19075 15.7209 3.29483 15.742 3.40995L15.75 3.49995V16.4999C15.7502 16.6249 15.7037 16.7454 15.6195 16.8377C15.5353 16.9301 15.4196 16.9875 15.2952 16.9988C15.1707 17.0101 15.0466 16.9744 14.9472 16.8987C14.8477 16.823 14.7803 16.7129 14.758 16.5899L14.75 16.4999V10.9999H13.25C13.133 11 13.0196 10.959 12.9297 10.8841C12.8398 10.8091 12.7791 10.7051 12.758 10.5899L12.75 10.4999V5.49995C12.75 4.8369 13.0134 4.20102 13.4822 3.73218C13.9511 3.26334 14.587 2.99995 15.25 2.99995V2.99995ZM14.75 9.99995V4.08495C14.212 4.27495 13.815 4.76294 13.757 5.35094L13.75 5.49995V9.99995H14.75V4.08495V9.99995Z" fill="#21479A"/>
</svg>
