<svg width="12" height="13" viewBox="0 0 12 13" fill="none" xmlns="http://www.w3.org/2000/svg">
<path d="M4.2345 10.1405C4.19958 10.1057 4.17187 10.0643 4.15296 10.0187C4.13406 9.97317 4.12433 9.92433 4.12433 9.875C4.12433 9.82568 4.13406 9.77683 4.15296 9.73128C4.17187 9.68572 4.19958 9.64434 4.2345 9.6095L7.34475 6.5L4.2345 3.3905C4.16408 3.32009 4.12452 3.22458 4.12452 3.125C4.12452 3.02542 4.16408 2.92992 4.2345 2.8595C4.30491 2.78909 4.40042 2.74953 4.5 2.74953C4.59958 2.74953 4.69508 2.78909 4.7655 2.8595L8.1405 6.2345C8.17542 6.26934 8.20313 6.31072 8.22203 6.35628C8.24094 6.40183 8.25067 6.45068 8.25067 6.5C8.25067 6.54933 8.24094 6.59817 8.22203 6.64373C8.20313 6.68928 8.17542 6.73067 8.1405 6.7655L4.7655 10.1405C4.73066 10.1754 4.68928 10.2031 4.64372 10.222C4.59817 10.2409 4.54932 10.2507 4.5 10.2507C4.45067 10.2507 4.40183 10.2409 4.35627 10.222C4.31071 10.2031 4.26933 10.1754 4.2345 10.1405V10.1405Z" fill="black" fill-opacity="0.5"/>
</svg>
