<svg width="18" height="18" viewBox="0 0 18 18" fill="none" xmlns="http://www.w3.org/2000/svg">
<path d="M3.1575 3.29025L3.21975 3.21975C3.34889 3.09062 3.52072 3.01304 3.70299 3.00158C3.88526 2.99012 4.06545 3.04556 4.20975 3.1575L4.28025 3.21975L9 7.93875L13.7197 3.21975C13.7889 3.14812 13.8717 3.09098 13.9632 3.05167C14.0547 3.01237 14.1531 2.99168 14.2527 2.99081C14.3523 2.98995 14.451 3.00892 14.5432 3.04663C14.6354 3.08434 14.7191 3.14003 14.7895 3.21045C14.86 3.28087 14.9157 3.36461 14.9534 3.45678C14.9911 3.54896 15.0101 3.64772 15.0092 3.7473C15.0083 3.84689 14.9876 3.9453 14.9483 4.0368C14.909 4.12831 14.8519 4.21106 14.7803 4.28025L10.0613 9L14.7803 13.7197C14.9094 13.8489 14.987 14.0207 14.9984 14.203C15.0099 14.3853 14.9544 14.5654 14.8425 14.7098L14.7803 14.7803C14.6511 14.9094 14.4793 14.987 14.297 14.9984C14.1147 15.0099 13.9346 14.9544 13.7902 14.8425L13.7197 14.7803L9 10.0612L4.28025 14.7803C4.1388 14.9169 3.94935 14.9925 3.7527 14.9908C3.55605 14.989 3.36794 14.9102 3.22889 14.7711C3.08983 14.6321 3.01095 14.4439 3.00924 14.2473C3.00754 14.0507 3.08313 13.8612 3.21975 13.7197L7.93875 9L3.21975 4.28025C3.09062 4.15111 3.01304 3.97928 3.00158 3.79701C2.99012 3.61474 3.04556 3.43455 3.1575 3.29025L3.21975 3.21975L3.1575 3.29025Z" fill="#131417"/>
</svg>
