<svg width="21" height="20" viewBox="0 0 21 20" fill="none" xmlns="http://www.w3.org/2000/svg">
<path d="M5.95301 4.16699C5.88624 4.09887 5.80672 4.04457 5.71896 4.0072C5.63121 3.96983 5.53695 3.95012 5.44158 3.94919C5.3462 3.94826 5.25158 3.96614 5.16312 4.00179C5.07465 4.03745 4.99408 4.09018 4.92601 4.15699C4.15596 4.92257 3.54512 5.83305 3.12874 6.8359C2.71235 7.83875 2.49867 8.91413 2.50001 9.99999C2.49876 11.1275 2.72926 12.2433 3.17721 13.278C3.62516 14.3127 4.28099 15.2443 5.10401 16.015C5.24253 16.143 5.4255 16.2121 5.61408 16.2074C5.80266 16.2027 5.98199 16.1247 6.11401 15.99C6.43001 15.674 6.39101 15.171 6.08701 14.88C5.4265 14.2505 4.9009 13.4933 4.54212 12.6544C4.18335 11.8155 3.99891 10.9124 4.00001 9.99999C4.00001 8.15399 4.74101 6.47999 5.94301 5.26199C6.23301 4.96699 6.26301 4.47699 5.95301 4.16699V4.16699ZM7.71401 5.92999C7.58231 5.79447 7.40226 5.7167 7.21331 5.7137C7.02437 5.7107 6.84194 5.78272 6.70601 5.91399C6.16496 6.44794 5.7355 7.08417 5.44261 7.78564C5.14973 8.48711 4.99928 9.23983 5.00001 9.99999C4.99883 10.8037 5.16677 11.5988 5.4929 12.3334C5.81903 13.068 6.29606 13.7258 6.89301 14.264C7.03025 14.3852 7.2089 14.449 7.39191 14.4422C7.57492 14.4353 7.74826 14.3582 7.87601 14.227C8.20401 13.899 8.14301 13.383 7.83501 13.093C7.41281 12.6961 7.07651 12.2169 6.84689 11.6849C6.61727 11.1529 6.49921 10.5794 6.50001 9.99999C6.50001 8.84999 6.95701 7.80599 7.70001 7.03999C7.98601 6.74599 8.03301 6.24699 7.71401 5.92899V5.92999ZM13.286 5.92999C13.4177 5.79447 13.5978 5.7167 13.7867 5.7137C13.9756 5.7107 14.1581 5.78272 14.294 5.91399C14.8351 6.44794 15.2645 7.08417 15.5574 7.78564C15.8503 8.48711 16.0007 9.23983 16 9.99999C16.0012 10.8037 15.8332 11.5988 15.5071 12.3334C15.181 13.068 14.7039 13.7258 14.107 14.264C13.9698 14.3852 13.7911 14.449 13.6081 14.4422C13.4251 14.4353 13.2517 14.3582 13.124 14.227C12.796 13.899 12.857 13.383 13.165 13.093C13.5872 12.6961 13.9235 12.2169 14.1531 11.6849C14.3827 11.1529 14.5008 10.5794 14.5 9.99999C14.5 8.84999 14.043 7.80599 13.3 7.03999C13.014 6.74599 12.967 6.24699 13.286 5.92899V5.92999ZM15.047 4.16799C15.1138 4.09987 15.1933 4.04557 15.2811 4.0082C15.3688 3.97083 15.4631 3.95112 15.5584 3.95019C15.6538 3.94926 15.7484 3.96714 15.8369 4.00279C15.9254 4.03845 16.0059 4.09118 16.074 4.15799C16.8439 4.92345 17.4547 5.83377 17.8711 6.83644C18.2875 7.83911 18.5012 8.9143 18.5 9.99999C18.5013 11.1275 18.2708 12.2433 17.8228 13.278C17.3749 14.3127 16.719 15.2443 15.896 16.015C15.7575 16.143 15.5745 16.2121 15.3859 16.2074C15.1974 16.2027 15.018 16.1247 14.886 15.99C14.57 15.674 14.609 15.171 14.914 14.88C15.5743 14.2504 16.0997 13.4932 16.4583 12.6543C16.8169 11.8154 17.0012 10.9123 17 9.99999C17 8.15399 16.259 6.47999 15.057 5.26199C14.767 4.96699 14.737 4.47699 15.047 4.16699V4.16799ZM10.5 8.49999C10.1022 8.49999 9.72065 8.65802 9.43935 8.93933C9.15804 9.22063 9.00001 9.60216 9.00001 9.99999C9.00001 10.3978 9.15804 10.7793 9.43935 11.0606C9.72065 11.342 10.1022 11.5 10.5 11.5C10.8978 11.5 11.2794 11.342 11.5607 11.0606C11.842 10.7793 12 10.3978 12 9.99999C12 9.60216 11.842 9.22063 11.5607 8.93933C11.2794 8.65802 10.8978 8.49999 10.5 8.49999Z" fill="white"/>
</svg>
