<svg width="21" height="20" viewBox="0 0 21 20" fill="none" xmlns="http://www.w3.org/2000/svg">
<path d="M9.75 2.99995C9.86703 2.99991 9.98036 3.04092 10.0703 3.11583C10.1602 3.19075 10.2209 3.29483 10.242 3.40995L10.25 3.49995V6.49995C10.2501 7.07627 10.0511 7.63494 9.68665 8.0814C9.3222 8.52785 8.81468 8.83468 8.25 8.94994V16.4999C8.25023 16.6249 8.20367 16.7454 8.11949 16.8377C8.03531 16.9301 7.91961 16.9875 7.79518 16.9988C7.67074 17.0101 7.54659 16.9744 7.44717 16.8987C7.34775 16.823 7.28026 16.7129 7.258 16.5899L7.25 16.4999V8.94994C6.71417 8.84036 6.22902 8.55814 5.86888 8.14653C5.50874 7.73491 5.29346 7.21659 5.256 6.67095L5.25 6.49995V3.49995C5.24977 3.375 5.29633 3.25449 5.38051 3.16216C5.46469 3.06983 5.58039 3.01236 5.70482 3.00107C5.82926 2.98978 5.95341 3.02549 6.05283 3.10116C6.15225 3.17684 6.21974 3.287 6.242 3.40995L6.25 3.49995V6.49995C6.24984 6.81027 6.34593 7.11301 6.52503 7.36644C6.70413 7.61986 6.95742 7.8115 7.25 7.91495V3.49995C7.24977 3.375 7.29633 3.25449 7.38051 3.16216C7.46469 3.06983 7.58039 3.01236 7.70482 3.00107C7.82926 2.98978 7.95341 3.02549 8.05283 3.10116C8.15225 3.17684 8.21974 3.287 8.242 3.40995L8.25 3.49995V7.91395C8.788 7.72395 9.185 7.23595 9.243 6.64895L9.25 6.49995V3.49995C9.25 3.36734 9.30268 3.24016 9.39645 3.14639C9.49022 3.05262 9.61739 2.99995 9.75 2.99995V2.99995ZM14.75 2.99995C14.867 2.99991 14.9804 3.04092 15.0703 3.11583C15.1602 3.19075 15.2209 3.29483 15.242 3.40995L15.25 3.49995V16.4999C15.2502 16.6249 15.2037 16.7454 15.1195 16.8377C15.0353 16.9301 14.9196 16.9875 14.7952 16.9988C14.6707 17.0101 14.5466 16.9744 14.4472 16.8987C14.3477 16.823 14.2803 16.7129 14.258 16.5899L14.25 16.4999V10.9999H12.75C12.633 11 12.5196 10.959 12.4297 10.8841C12.3398 10.8091 12.2791 10.7051 12.258 10.5899L12.25 10.4999V5.49995C12.25 4.8369 12.5134 4.20102 12.9822 3.73218C13.4511 3.26334 14.087 2.99995 14.75 2.99995V2.99995ZM14.25 9.99995V4.08495C13.712 4.27495 13.315 4.76294 13.257 5.35094L13.25 5.49995V9.99995H14.25V4.08495V9.99995Z" fill="#21479A"/>
</svg>
