<svg width="18" height="18" viewBox="0 0 18 18" fill="none" xmlns="http://www.w3.org/2000/svg">
<path d="M3.15752 3.29025L3.21977 3.21975C3.34891 3.09062 3.52074 3.01304 3.70301 3.00158C3.88528 2.99012 4.06547 3.04556 4.20977 3.1575L4.28027 3.21975L9.00002 7.93875L13.7198 3.21975C13.789 3.14812 13.8717 3.09098 13.9632 3.05167C14.0547 3.01237 14.1531 2.99168 14.2527 2.99081C14.3523 2.98995 14.4511 3.00892 14.5432 3.04663C14.6354 3.08434 14.7191 3.14003 14.7896 3.21045C14.86 3.28087 14.9157 3.36461 14.9534 3.45678C14.9911 3.54896 15.0101 3.64772 15.0092 3.7473C15.0083 3.84689 14.9877 3.9453 14.9483 4.0368C14.909 4.12831 14.8519 4.21106 14.7803 4.28025L10.0613 9L14.7803 13.7197C14.9094 13.8489 14.987 14.0207 14.9984 14.203C15.0099 14.3853 14.9545 14.5654 14.8425 14.7098L14.7803 14.7803C14.6511 14.9094 14.4793 14.987 14.297 14.9984C14.1148 15.0099 13.9346 14.9544 13.7903 14.8425L13.7198 14.7803L9.00002 10.0612L4.28027 14.7803C4.13882 14.9169 3.94936 14.9925 3.75272 14.9908C3.55607 14.989 3.36796 14.9102 3.2289 14.7711C3.08985 14.6321 3.01097 14.4439 3.00926 14.2473C3.00755 14.0507 3.08315 13.8612 3.21977 13.7197L7.93877 9L3.21977 4.28025C3.09064 4.15111 3.01306 3.97928 3.0016 3.79701C2.99014 3.61474 3.04558 3.43455 3.15752 3.29025L3.21977 3.21975L3.15752 3.29025Z" fill="#131417"/>
</svg>
